<?xml version="1.0" encoding="UTF-8" standalone="no"?>
<!-- Created with Inkscape (http://www.inkscape.org/) -->

<svg
   version="1.1"
   id="svg1"
   width="2721.4534"
   height="257.44"
   viewBox="0 0 2721.4534 257.44"
   sodipodi:docname="TPS_Logo_1Line-Black-Cutout.eps"
   xmlns:inkscape="http://www.inkscape.org/namespaces/inkscape"
   xmlns:sodipodi="http://sodipodi.sourceforge.net/DTD/sodipodi-0.dtd"
   xmlns="http://www.w3.org/2000/svg"
   xmlns:svg="http://www.w3.org/2000/svg">
  <defs
     id="defs1" />
  <sodipodi:namedview
     id="namedview1"
     pagecolor="#ffffff"
     bordercolor="#000000"
     borderopacity="0.25"
     inkscape:showpageshadow="2"
     inkscape:pageopacity="0.0"
     inkscape:pagecheckerboard="0"
     inkscape:deskcolor="#d1d1d1">
    <inkscape:page
       x="0"
       y="0"
       inkscape:label="1"
       id="page1"
       width="2721.4534"
       height="257.44"
       margin="0"
       bleed="0" />
  </sodipodi:namedview>
  <g
     id="g1"
     inkscape:groupmode="layer"
     inkscape:label="1">
    <g
       id="group-R5">
      <path
         id="path2"
         d="M 6983.66,1268.27 H 6860.09 V 641.449 h 431.25 v 113.723 h -307.68 z m 7968.54,-253.41 c -97.6,12.53 -137.8,36.71 -137.8,82.37 0,45.67 53.7,77.91 131.6,77.91 59.1,0 120,-19.7 170.1,-56.42 l 60.9,87.76 c -64.5,47.46 -149.5,75.22 -234.6,75.22 -147.8,0 -249.8,-76.12 -249.8,-186.25 0,-111.934 74.3,-169.251 245.3,-189.841 98.5,-11.64 142.4,-36.711 142.4,-84.179 0,-50.141 -52.8,-81.481 -136.1,-81.481 -75.2,0 -149.6,25.071 -202.4,68.051 l -64.5,-92.23 c 70.8,-56.411 169.3,-87.75 266.9,-87.75 155.8,0 259.7,77.902 259.7,195.21 0,109.239 -77.9,168.34 -251.7,191.63 z m -2481,-56.426 v 199.696 h 167.4 c 69,0 109.3,-37.61 109.3,-100.29 0,-62.684 -40.3,-99.406 -109.3,-99.406 z m 399.3,100.296 c 0,125.37 -87.7,209.54 -223.8,209.54 h -298.2 V 641.449 h 123.6 v 210.43 h 108.3 l 171.1,-210.43 h 151.3 l -185.4,219.379 c 96.7,25.082 153.1,97.606 153.1,197.902 z m 666.5,-50.14 -163,259.68 h -146.9 l 246.3,-377.891 v -248.93 h 124.4 v 249.832 l 253.5,376.989 h -148.7 z m 2340.9,-268.641 c -122.7,0 -205.1,86.852 -205.1,214.91 0,128.051 82.4,214.911 205.1,214.911 121.8,0 204.2,-86.86 204.2,-214.911 0,-128.058 -82.4,-214.91 -204.2,-214.91 z m 0,542.641 c -198.8,0 -330.4,-130.73 -330.4,-327.731 0,-197.007 131.6,-327.738 330.4,-327.738 197.9,0 329.5,130.731 329.5,327.738 0,197.001 -131.6,327.731 -329.5,327.731 z m 1008,-542.641 c -124.4,0 -209.5,86.852 -209.5,214.91 0,128.051 85.1,214.911 209.5,214.911 60.9,0 111.1,-20.6 152.3,-61.79 l 79.7,76.12 c -63.6,64.47 -143.3,97.6 -235.5,97.6 -194.4,0 -331.4,-132.53 -331.4,-326.841 0,-192.531 134.4,-326.839 333.1,-326.839 95,0 175.5,31.339 240,94.921 l -75.2,82.379 c -43,-42.09 -101.2,-65.371 -163,-65.371 z m 2057.3,417.281 h 197.9 V 641.449 h 124.4 v 515.781 h 197.9 v 111.04 h -520.2 z m 1319.1,111.04 -165.7,-259.68 -163,259.68 h -146.8 L 20033,890.379 v -248.93 h 124.5 v 249.832 l 253.4,376.989 z M 11772,870.328 h -217.1 l 1.5,3.75 107.1,268.742 107.1,-268.718 z m -175.7,398.192 -263.6,-626.809 h 132.9 l 47.7,119.68 1.1,2.89 h 297.3 l 1.1,-2.851 47.7,-119.719 h 133.8 l -262.7,626.809 z m 5939.1,-627.071 h 123.5 v 626.821 h -123.5 z m 704.9,265.051 h 330.5 v 104.77 h -330.5 v 149.54 h 346.6 v 107.46 h -468.3 V 641.449 h 476.3 v 108.352 h -354.6 z m -9189.38,119.1 0.89,-178.202 -313.41,420.872 H 8627.36 V 641.449 h 123.57 V 875.16 l -1.78,186.25 313.4,-419.961 h 111.93 V 1268.27 H 9050.92 Z M 8054.53,870.328 h -217.11 l 1.43,3.75 107.14,268.742 107.13,-268.718 z m -175.7,398.192 -263.64,-626.809 h 132.88 l 47.75,119.68 1.1,2.89 h 297.26 l 1.07,-2.851 47.76,-119.719 h 133.77 l -262.73,626.809 z m 2632.47,-111.29 h 197.9 V 641.449 h 124.4 v 515.781 h 197.9 v 111.04 h -520.2 z M 6273.62,936.051 h -166.56 v 220.279 h 166.56 c 69.84,0 114.61,-42.98 114.61,-110.13 0,-67.169 -44.77,-110.149 -114.61,-110.149 z m 5.37,332.219 H 5984.38 V 641.449 h 123.58 V 825.02 h 171.03 c 142.37,0 233.71,86.859 233.71,222.07 0,134.32 -91.34,221.18 -233.71,221.18 z M 4099.23,1016.64 h -299.08 v 251.63 H 3676.58 V 641.449 h 123.57 v 261.473 h 299.08 V 641.449 h 123.58 V 1268.27 H 4099.23 Z M 4756.89,906.5 h 330.42 v 104.77 h -330.42 v 149.54 h 346.54 v 107.46 H 4635.1 V 641.449 h 476.38 v 108.352 h -354.59 z m -1968.98,250.73 h 197.9 V 641.449 h 124.47 v 515.781 h 197.9 v 111.04 H 2787.91 Z M 9756.18,906.5 h 330.42 v 104.77 h -330.42 v 149.54 h 346.62 v 107.46 H 9634.38 V 641.449 h 476.42 V 749.801 H 9756.18 Z M 965.406,1930.81 C 432.227,1930.81 0,1498.58 0,965.406 0,432.227 432.227,0 965.406,0 c 533.174,0 965.404,432.227 965.404,965.406 0,533.174 -432.23,965.404 -965.404,965.404 z M 1163.03,882.277 C 1143.49,569.926 875.203,313.477 538.941,274.891 790.477,340.199 981.09,555.961 1005.93,820.121 868.75,768.453 716.68,717.5 553.34,669.258 467.445,643.891 382.902,621.469 300.672,600.699 c -5.289,-1.336 -10.57,-2.668 -15.844,-3.996 0.832,0.715 1.68,1.418 2.504,2.141 48.906,26.351 153.25,65.058 230.555,91.047 184.937,62.16 351.711,128.601 490.723,194.086 -2.75,339.973 -280.059,616.223 -624.297,619.203 -38.54,0.33 -76.293,-2.79 -112.985,-9.05 68.801,21.02 142.051,32.7 217.879,33.24 359.906,2.59 649.013,-245.58 673.303,-565.038 186.45,103.478 289.84,198.898 269.25,264.008 -18.28,57.78 -155.5,76.45 -358.28,57.38 -16.25,19.31 -32.42,36.87 -46.48,50.81 406.75,70.42 688.44,54.09 716.32,-34.05 31.59,-99.89 -197.09,-258.64 -580.29,-418.203"
         style="fill:#231f20;fill-opacity:1;fill-rule:nonzero;stroke:none"
         transform="matrix(0.13333333,0,0,-0.13333333,0,257.44)" />
    </g>
  </g>
</svg>
